<?xml version="1.0" encoding="UTF-8" standalone="no"?>
<svg
   version="1.1"
   viewBox="0 0 527 452"
   width="527"
   height="452"
   id="svg5"
   sodipodi:docname="modario_logo.svg"
   inkscape:version="1.4.3 (0d15f75, 2025-12-25)"
   xmlns:inkscape="http://www.inkscape.org/namespaces/inkscape"
   xmlns:sodipodi="http://sodipodi.sourceforge.net/DTD/sodipodi-0.dtd"
   xmlns="http://www.w3.org/2000/svg"
   xmlns:svg="http://www.w3.org/2000/svg">
  <defs
     id="defs5" />
  <sodipodi:namedview
     id="namedview5"
     pagecolor="#ffffff"
     bordercolor="#000000"
     borderopacity="0.25"
     inkscape:showpageshadow="2"
     inkscape:pageopacity="0.0"
     inkscape:pagecheckerboard="0"
     inkscape:deskcolor="#d1d1d1"
     inkscape:zoom="0.78417969"
     inkscape:cx="275.44707"
     inkscape:cy="219.97509"
     inkscape:window-width="1854"
     inkscape:window-height="1011"
     inkscape:window-x="0"
     inkscape:window-y="0"
     inkscape:window-maximized="1"
     inkscape:current-layer="svg5"
     showguides="false" />
  <path
     d="m 10,0 h 241 l 6,3 1,1 v 7 l -7,8 -13,12 -8,7 -5,4 -9,4 -12,2 L 91,47 H 64 l -6,3 -3,5 v 91 l 5,5 29,1 6,-3 2,-4 1,-14 1,-41 5,-4 h 78 l -1,3 -11,9 -10,9 -8,7 -6,7 -4,8 -1,4 v 12 l 3,5 6,2 9,-1 11,-6 12,-11 119,-119 9,-8 13,-6 5,-1 h 189 l 7,4 3,6 v 179 l -3,6 -5,4 -3,1 h -78 l -14,4 -9,6 -20,20 -7,8 -112,112 -7,8 -8,6 -12,5 -9,2 h -29 l -49,-1 -6,1 v 62 l -1,11 -5,6 -5,2 h -36 l -6,-3 -4,-5 -1,-2 V 328 l 3,-5 2,-1 119,-1 11,-4 8,-6 11,-11 8,-7 10,-10 8,-7 15,-15 8,-7 16,-16 8,-7 23,-23 10,-9 26,-26 5,-10 2,-9 v -12 l -3,-5 -5,-2 -9,1 -10,5 -41,41 -8,7 -19,19 -8,7 -15,15 -8,7 -11,11 -8,7 -13,13 -10,8 -12,5 -5,1 -145,1 -5,4 -2,5 -1,152 -5,6 -5,2 H 11 L 4,449 0,443 V 244 l 4,-6 5,-3 182,-1 12,-5 10,-8 16,-16 8,-7 8,-8 8,-7 8,-8 8,-7 16,-15 9,-9 8,-7 16,-16 8,-7 18,-18 9,-6 8,-3 6,-1 h 56 l 4,2 2,4 1,54 5,5 5,1 h 23 l 6,-3 3,-7 V 55 l -4,-6 -5,-2 H 352 l -10,3 -10,6 -29,29 -8,7 -14,14 -8,7 -13,13 -8,7 -9,9 -8,7 -9,9 -8,7 -10,10 -8,7 -7,7 -9,6 -12,4 -84,1 H 11 L 3,196 0,191 V 9 L 3,4 7,1 Z"
     fill="#87142f"
     id="path2" />
  <path
     d="m 436,236 h 82 l 6,4 3,6 v 197 l -4,6 -7,3 h -32 l -6,-3 -4,-5 -1,-152 -3,-6 -6,-3 h -83 l 1,-2 10,-4 9,-8 13,-19 8,-9 9,-4 z"
     fill="#87142f"
     id="path3" />
  <path
     d="m 350,322 h 75 l 4,5 v 116 l -4,6 -7,3 h -37 l -6,-3 -4,-6 v -72 l -7,-2 -47,-1 -5,-4 1,-6 14,-19 7,-9 8,-6 z"
     fill="#87142f"
     id="path4" />
</svg>
