<?xml version="1.0" encoding="UTF-8" standalone="no"?>
<svg
   version="1.1"
   viewBox="0 0 1024 1024"
   width="1024"
   height="1024"
   id="svg5"
   sodipodi:docname="modario_logo.svg"
   inkscape:version="1.4.3 (0d15f75, 2025-12-25)"
   xmlns:inkscape="http://www.inkscape.org/namespaces/inkscape"
   xmlns:sodipodi="http://sodipodi.sourceforge.net/DTD/sodipodi-0.dtd"
   xmlns="http://www.w3.org/2000/svg"
   xmlns:svg="http://www.w3.org/2000/svg">
  <defs
     id="defs5" />
  <sodipodi:namedview
     id="namedview5"
     pagecolor="#ffffff"
     bordercolor="#000000"
     borderopacity="0.25"
     inkscape:showpageshadow="2"
     inkscape:pageopacity="0.0"
     inkscape:pagecheckerboard="0"
     inkscape:deskcolor="#d1d1d1"
     inkscape:zoom="0.78417969"
     inkscape:cx="522.83935"
     inkscape:cy="491.59651"
     inkscape:window-width="1854"
     inkscape:window-height="1011"
     inkscape:window-x="0"
     inkscape:window-y="0"
     inkscape:window-maximized="1"
     inkscape:current-layer="svg5" />
  <path
     transform="translate(258,271)"
     d="m0 0h241l6 3 1 1v7l-7 8-13 12-8 7-5 4-9 4-12 2-113-1h-27l-6 3-3 5v91l5 5 29 1 6-3 2-4 1-14 1-41 5-4h78l-1 3-11 9-10 9-8 7-6 7-4 8-1 4v12l3 5 6 2 9-1 11-6 12-11 119-119 9-8 13-6 5-1h189l7 4 3 6v179l-3 6-5 4-3 1h-78l-14 4-9 6-20 20-7 8-112 112-7 8-8 6-12 5-9 2h-29l-49-1-6 1v62l-1 11-5 6-5 2h-36l-6-3-4-5-1-2v-114l3-5 2-1 119-1 11-4 8-6 11-11 8-7 10-10 8-7 15-15 8-7 16-16 8-7 23-23 10-9 26-26 5-10 2-9v-12l-3-5-5-2-9 1-10 5-41 41-8 7-19 19-8 7-15 15-8 7-11 11-8 7-13 13-10 8-12 5-5 1-145 1-5 4-2 5-1 152-5 6-5 2h-32l-7-3-4-6v-199l4-6 5-3 182-1 12-5 10-8 16-16 8-7 8-8 8-7 8-8 8-7 16-15 9-9 8-7 16-16 8-7 18-18 9-6 8-3 6-1h56l4 2 2 4 1 54 5 5 5 1h23l6-3 3-7v-87l-4-6-5-2h-111l-10 3-10 6-29 29-8 7-14 14-8 7-13 13-8 7-9 9-8 7-9 9-8 7-10 10-8 7-7 7-9 6-12 4-84 1h-77l-8-4-3-5v-182l3-5 4-3z"
     fill="#87142F"
     id="path2" />
  <path
     transform="translate(684,507)"
     d="m0 0h82l6 4 3 6v197l-4 6-7 3h-32l-6-3-4-5-1-152-3-6-6-3h-83l1-2 10-4 9-8 13-19 8-9 9-4z"
     fill="#87142F"
     id="path3" />
  <path
     transform="translate(598,593)"
     d="m0 0h75l4 5v116l-4 6-7 3h-37l-6-3-4-6v-72l-7-2-47-1-5-4 1-6 14-19 7-9 8-6z"
     fill="#87142F"
     id="path4" />
  <path
     transform="translate(627,557)"
     d="m0 0 4 4-4 2-3-1-2 3-2-2v-4z"
     fill="#87142F"
     id="path5" />
</svg>
